Coordinates
version=1
nRows=16
nColumns=36
inDegrees=yes

Units are S.I. units (second, meters, Newtons, ...)
If the header above contains a line with 'inDegrees', this indicates whether rotational values are in degrees (yes) or radians (no).

endheader
time	pelvis_tilt	pelvis_list	pelvis_rotation	pelvis_tx	pelvis_ty	pelvis_tz	hip_flexion_r	hip_adduction_r	hip_rotation_r	knee_angle_r	knee_angle_r_beta	ankle_angle_r	subtalar_angle_r	mtp_angle_r	hip_flexion_l	hip_adduction_l	hip_rotation_l	knee_angle_l	knee_angle_l_beta	ankle_angle_l	subtalar_angle_l	mtp_angle_l	lumbar_extension	lumbar_bending	lumbar_rotation	arm_flex_r	arm_add_r	arm_rot_r	elbow_flex_r	pro_sup_r	arm_flex_l	arm_add_l	arm_rot_l	elbow_flex_l	pro_sup_l
      2.45000000	     -5.91698699	     -4.61971471	     16.44122822	      1.08394861	      0.72445490	     -0.16525555	     64.31944775	     -5.59354551	    -10.54160924	     17.87651571	      0.31200406	     -5.54883604	     -5.33077233	     -7.49999987	     54.10817085	      0.49613540	    -14.63405108	     80.35453588	      1.40245122	     32.31147145	    -16.18274186	     -7.49999987	    -30.29798930	     -7.46066707	     11.56949450	     63.91314116	      4.93428920	     66.30774428	    107.44552370	     84.85412879	     70.31306354	     17.94400913	     70.33025524	    115.73680821	     79.63199676
      2.46666670	     -6.11856674	     -4.55609465	     16.52035927	      1.07995548	      0.72029449	     -0.16333206	     65.05785306	     -5.38893395	    -10.92697119	     17.13697052	      0.29909656	     -5.86267157	     -5.19804326	     -7.49999987	     55.15051614	      0.59291711	    -14.69934925	     81.34219905	      1.41968919	     32.49915733	    -16.17487809	     -7.49999987	    -30.65501893	     -7.63399030	     11.58054884	     64.74449955	      5.01974034	     65.90681232	    106.80973280	     83.49260572	     72.15257167	     18.51734389	     69.44488351	    114.64778396	     78.47452174
      2.48333330	     -6.23868880	     -4.71046512	     16.81571003	      1.08460644	      0.72117216	     -0.16587161	     64.80773864	     -5.05663541	    -11.62135807	     16.06777025	      0.28043549	     -6.85268950	     -5.79852988	     -7.49999987	     55.37927498	      0.53808952	    -14.51828360	     81.61332001	      1.42442115	     32.60961675	    -15.87213036	     -7.49999987	    -31.30836745	     -7.67696416	     11.53114417	     64.90874643	      4.43072449	     66.47200431	    107.83956167	     83.77194293	     73.81878191	     19.44379553	     69.96696603	    112.83801648	     78.76100839
      2.50000000	     -6.82558661	     -4.56091888	     17.06753118	      1.08428193	      0.71537229	     -0.16543663	     65.33753326	     -4.91864523	    -11.58795973	     15.03618902	      0.26243101	     -6.93567327	     -5.25929610	     -7.49999987	     56.38116521	      0.83497883	    -14.83355358	     82.24413659	      1.43543097	     32.74606119	    -15.44153584	     -7.49999987	    -31.54397285	     -8.14231166	     11.27065702	     65.06040204	      4.33291511	     66.66415570	    107.88309020	     83.82220453	     74.70244066	     19.95724607	     69.74907944	    112.72371721	     78.81567350
      2.51666670	     -7.22885668	     -4.51946444	     17.11155618	      1.08385724	      0.71272851	     -0.16507519	     65.64925102	     -4.72887409	    -11.37330409	     14.34941822	      0.25044459	     -7.29606955	     -4.44276064	     -7.49999987	     57.03162658	      0.76908852	    -15.27931372	     82.89026721	      1.44670808	     33.60278798	    -13.94989389	     -7.49999987	    -31.54709994	     -8.69287094	     11.70689294	     64.54928466	      3.27052164	     66.62861670	    109.16659910	     86.34063080	     76.01410631	     20.54399080	     70.45661142	    111.20780947	     81.84959255
      2.53333330	     -7.57188651	     -4.42610256	     17.30134190	      1.08363047	      0.71169968	     -0.16493640	     65.83744886	     -4.69150151	    -10.89774758	     13.84564097	      0.24165202	     -7.06399519	     -3.97222253	     -7.49999987	     57.37891488	      0.98708741	    -15.35990535	     83.11190361	      1.45057637	     33.34770872	    -13.94462158	     -7.49999987	    -31.55256220	     -8.85397846	     11.58621044	     64.55253520	      3.27481198	     66.58407679	    108.87692090	     85.78200589	     76.77456340	     20.96556954	     70.21429246	    110.91668448	     81.35833990
      2.55000000	     -7.82310387	     -4.10971206	     17.33308095	      1.08284584	      0.70937189	     -0.16378994	     65.89386526	     -4.58745379	    -10.06651106	     13.58395365	      0.23708472	     -7.05204432	     -4.20404248	     -7.49999987	     57.74700758	      1.17358095	    -15.71785177	     83.38503638	      1.45534343	     33.14355847	    -13.84764810	     -7.49999987	    -31.97151657	     -9.54462600	     11.38567863	     64.51227729	      2.93665150	     66.33874497	    109.75703675	     85.71734432	     78.04080311	     21.30985388	     70.43618133	    111.17897502	     81.43918161
      2.56666670	     -8.05618025	     -4.16065440	     17.27501464	      1.08300630	      0.70623563	     -0.16401605	     66.28472954	     -4.33462131	     -9.42574709	     13.55626597	      0.23660148	     -6.95825711	     -3.97257523	     -7.49999987	     58.40840686	      1.06710891	    -15.89018644	     83.95244105	      1.46524651	     32.91354069	    -14.37710579	     -7.49999987	    -32.01793571	     -9.78166686	     11.73939966	     64.78775373	      2.61025835	     66.14315328	    110.35418370	     85.77378412	     79.31093052	     22.35655336	     70.18274009	    110.05282557	     81.47400087
      2.58333330	     -8.09752435	     -3.95615681	     17.46568359	      1.08225545	      0.70398000	     -0.16304937	     66.49603665	     -4.47089425	     -9.08458507	     13.98589214	      0.24409987	     -6.62205059	     -4.38830294	     -7.49999987	     58.79938154	      1.23103374	    -16.26260120	     84.40947999	      1.47322335	     32.82393965	    -14.63974247	     -7.49999987	    -32.18502153	     -9.91056191	     11.98469863	     64.92987990	      2.42580875	     66.17061329	    109.79936451	     85.48677305	     80.48638874	     22.79325304	     69.61442669	    109.71630080	     81.23184400
      2.60000000	     -8.05536595	     -3.27690294	     17.81965341	      1.07886176	      0.70047291	     -0.16579646	     66.31724156	     -5.06254865	     -8.20803483	     13.70887793	      0.23926506	     -6.69452867	     -5.11859007	     -7.49999987	     59.00080743	      2.01175620	    -16.67482252	     84.64206861	      1.47728278	     32.17264759	    -15.08970646	     -7.49999987	    -32.64471010	    -10.59985759	     11.52477220	     65.73913741	      1.94304094	     66.29207918	    110.25995147	     85.82894632	     82.75574303	     23.69354425	     69.30660599	    107.89972838	     81.69733968
      2.61666670	     -8.18175118	     -2.87905678	     17.98256790	      1.08664508	      0.69991833	     -0.16423252	     66.10290699	     -5.17013316	     -8.00006780	     13.55293247	      0.23654329	     -6.46072458	     -5.53024703	     -7.49999987	     58.94516348	      2.29197767	    -16.74829669	     84.80991641	      1.48021228	     31.68383929	    -15.90433418	     -7.49999987	    -32.63289419	    -11.05254006	     11.10341390	     65.38882380	      2.02202925	     66.68808426	    109.85529558	     85.97476138	     83.47185019	     23.90809493	     69.48422988	    107.17710837	     81.85411089
      2.63333330	     -8.39853733	     -2.56686452	     17.90339523	      1.08380000	      0.69843049	     -0.16751788	     65.97568119	     -5.30602063	     -8.07694916	     13.17821049	      0.23000316	     -6.78365441	     -5.39568382	     -7.49999987	     59.18553898	      2.86391337	    -16.98411618	     84.90098494	      1.48180173	     31.89422792	    -15.95405289	     -7.49999987	    -32.75059206	    -11.31897299	     10.47809336	     65.12885090	      2.23955671	     67.08977368	    109.78166953	     86.03213378	     84.03478935	     24.08167270	     69.20479886	    106.83575554	     81.86815894
      2.65000000	     -8.49131698	     -2.17758839	     17.69789186	      1.08338966	      0.69637830	     -0.16608509	     66.24129803	     -5.31966907	     -7.66369547	     13.31666593	      0.23241967	     -7.04335129	     -5.35136034	     -7.49999987	     59.33860702	      3.07009891	    -17.32992588	     85.10713078	      1.48539965	     31.94593975	    -16.22073778	     -7.49999987	    -33.04462588	    -11.81357100	      9.53875803	     66.10046990	      2.79821871	     67.63366328	    109.99056525	     85.81941242	     84.97207891	     23.85501778	     69.17748680	    106.36304275	     81.57695575
      2.66666670	     -8.69770634	     -2.09057623	     17.48180630	      1.08378279	      0.69587954	     -0.16621676	     66.49351108	     -5.29592104	     -7.58120881	     13.58552485	      0.23711214	     -7.23589900	     -5.79854761	     -7.49999987	     59.58860846	      3.12775433	    -17.43912998	     85.14081219	      1.48598750	     31.85771707	    -16.40725155	     -7.49999987	    -32.95329922	    -11.86086638	      9.33261129	     66.42701950	      3.01121293	     67.95046180	    110.30799549	     85.15915647	     85.10200004	     23.26198153	     68.97873492	    107.14740324	     80.85420793
      2.68333330	     -8.62003235	     -1.84145618	     17.18510931	      1.08416205	      0.69628784	     -0.16565635	     66.46354918	     -5.13445421	     -7.80055225	     13.35656128	      0.23311597	     -7.64714958	     -5.61211943	     -7.49999987	     59.53376958	      3.05880343	    -17.72423833	     85.33943678	      1.48945415	     31.43328665	    -16.66774716	     -7.49999987	    -33.01314615	    -12.17285236	      9.35159099	     66.77830389	      3.29034028	     68.11782946	    110.38141266	     85.10218307	     85.35764277	     22.97746121	     68.67486548	    107.70289372	     80.72590176
      2.70000000	     -8.51111731	     -1.65533972	     17.22731869	      1.08451748	      0.69603677	     -0.16585049	     66.24869912	     -5.08766889	     -8.05005680	     12.72947869	      0.22217132	     -7.95564100	     -5.29900790	     -7.49999987	     59.43869046	      3.21147823	    -17.73753404	     85.36791983	      1.48995128	     31.18965038	    -16.86736700	     -7.49999987	    -32.96844566	    -12.35168428	      9.39313946	     66.93900745	      3.20894294	     67.79306128	    110.81135395	     85.09882800	     85.53451308	     22.70051164	     68.40590395	    108.06641027	     80.66291094
